<svg width="197" height="56" viewBox="0 0 197 56" fill="none" xmlns="http://www.w3.org/2000/svg">
<g filter="url(#filter0_d_14_12)">
<rect x="65.5846" y="30.8019" width="24.3478" height="22.8019" rx="2.5" transform="rotate(180 65.5846 30.8019)" fill="#4282CD"/>
</g>
<g filter="url(#filter1_d_14_12)">
<rect x="32.3478" y="31.9613" width="24.3478" height="22.8019" rx="2.5" transform="rotate(180 32.3478 31.9613)" fill="#D3493A"/>
</g>
<g filter="url(#filter2_d_14_12)">
<rect x="48.3865" y="48" width="24.3478" height="22.8019" rx="2.5" transform="rotate(180 48.3865 48)" fill="#FFBE39"/>
</g>
<path d="M78.2955 39V15.7273H82.5114V35.4659H92.7614V39H78.2955ZM101.261 39.3523C100.155 39.3523 99.1591 39.1553 98.2727 38.7614C97.3939 38.3598 96.697 37.7689 96.1818 36.9886C95.6742 36.2083 95.4205 35.2462 95.4205 34.1023C95.4205 33.1174 95.6023 32.303 95.9659 31.6591C96.3295 31.0152 96.8258 30.5 97.4545 30.1136C98.0833 29.7273 98.7917 29.4356 99.5795 29.2386C100.375 29.0341 101.197 28.8864 102.045 28.7955C103.068 28.6894 103.898 28.5947 104.534 28.5114C105.17 28.4205 105.633 28.2841 105.92 28.1023C106.216 27.9129 106.364 27.6212 106.364 27.2273V27.1591C106.364 26.303 106.11 25.6402 105.602 25.1705C105.095 24.7008 104.364 24.4659 103.409 24.4659C102.402 24.4659 101.602 24.6856 101.011 25.125C100.428 25.5644 100.034 26.0833 99.8295 26.6818L95.9886 26.1364C96.2917 25.0758 96.7917 24.1894 97.4886 23.4773C98.1856 22.7576 99.0379 22.2197 100.045 21.8636C101.053 21.5 102.167 21.3182 103.386 21.3182C104.227 21.3182 105.064 21.4167 105.898 21.6136C106.731 21.8106 107.492 22.1364 108.182 22.5909C108.871 23.0379 109.424 23.6477 109.841 24.4205C110.265 25.1932 110.477 26.1591 110.477 27.3182V39H106.523V36.6023H106.386C106.136 37.0871 105.784 37.5417 105.33 37.9659C104.883 38.3826 104.318 38.7197 103.636 38.9773C102.962 39.2273 102.17 39.3523 101.261 39.3523ZM102.33 36.3295C103.155 36.3295 103.871 36.1667 104.477 35.8409C105.083 35.5076 105.549 35.0682 105.875 34.5227C106.208 33.9773 106.375 33.3826 106.375 32.7386V30.6818C106.246 30.7879 106.027 30.8864 105.716 30.9773C105.413 31.0682 105.072 31.1477 104.693 31.2159C104.314 31.2841 103.939 31.3447 103.568 31.3977C103.197 31.4508 102.875 31.4962 102.602 31.5341C101.989 31.6174 101.439 31.7538 100.955 31.9432C100.47 32.1326 100.087 32.3977 99.8068 32.7386C99.5265 33.072 99.3864 33.5038 99.3864 34.0341C99.3864 34.7917 99.6629 35.3636 100.216 35.75C100.769 36.1364 101.473 36.3295 102.33 36.3295ZM114.795 39V15.7273H118.909V24.4318H119.08C119.292 24.0076 119.591 23.5568 119.977 23.0795C120.364 22.5947 120.886 22.1818 121.545 21.8409C122.205 21.4924 123.045 21.3182 124.068 21.3182C125.417 21.3182 126.633 21.6629 127.716 22.3523C128.807 23.0341 129.67 24.0455 130.307 25.3864C130.951 26.7197 131.273 28.3561 131.273 30.2955C131.273 32.2121 130.958 33.8409 130.33 35.1818C129.701 36.5227 128.845 37.5455 127.761 38.25C126.678 38.9545 125.451 39.3068 124.08 39.3068C123.08 39.3068 122.25 39.1402 121.591 38.8068C120.932 38.4735 120.402 38.072 120 37.6023C119.606 37.125 119.299 36.6742 119.08 36.25H118.841V39H114.795ZM118.83 30.2727C118.83 31.4015 118.989 32.3902 119.307 33.2386C119.633 34.0871 120.098 34.75 120.705 35.2273C121.318 35.697 122.061 35.9318 122.932 35.9318C123.841 35.9318 124.602 35.6894 125.216 35.2045C125.83 34.7121 126.292 34.0417 126.602 33.1932C126.92 32.3371 127.08 31.3636 127.08 30.2727C127.08 29.1894 126.924 28.2273 126.614 27.3864C126.303 26.5455 125.841 25.8864 125.227 25.4091C124.614 24.9318 123.848 24.6932 122.932 24.6932C122.053 24.6932 121.307 24.9242 120.693 25.3864C120.08 25.8485 119.614 26.4962 119.295 27.3295C118.985 28.1629 118.83 29.1439 118.83 30.2727Z" fill="#151720"/>
<path d="M134.952 39V15.7273H150.088V19.2614H139.168V25.5795H149.304V29.1136H139.168V35.4659H150.179V39H134.952ZM169.798 21.5455L163.582 39H159.037L152.821 21.5455H157.207L161.219 34.5114H161.401L165.423 21.5455H169.798ZM177.168 39.3523C176.062 39.3523 175.065 39.1553 174.179 38.7614C173.3 38.3598 172.603 37.7689 172.088 36.9886C171.58 36.2083 171.327 35.2462 171.327 34.1023C171.327 33.1174 171.509 32.303 171.872 31.6591C172.236 31.0152 172.732 30.5 173.361 30.1136C173.99 29.7273 174.698 29.4356 175.486 29.2386C176.281 29.0341 177.103 28.8864 177.952 28.7955C178.974 28.6894 179.804 28.5947 180.44 28.5114C181.077 28.4205 181.539 28.2841 181.827 28.1023C182.122 27.9129 182.27 27.6212 182.27 27.2273V27.1591C182.27 26.303 182.016 25.6402 181.509 25.1705C181.001 24.7008 180.27 24.4659 179.315 24.4659C178.308 24.4659 177.509 24.6856 176.918 25.125C176.334 25.5644 175.94 26.0833 175.736 26.6818L171.895 26.1364C172.198 25.0758 172.698 24.1894 173.395 23.4773C174.092 22.7576 174.944 22.2197 175.952 21.8636C176.959 21.5 178.073 21.3182 179.293 21.3182C180.134 21.3182 180.971 21.4167 181.804 21.6136C182.637 21.8106 183.399 22.1364 184.088 22.5909C184.777 23.0379 185.33 23.6477 185.747 24.4205C186.171 25.1932 186.384 26.1591 186.384 27.3182V39H182.429V36.6023H182.293C182.043 37.0871 181.69 37.5417 181.236 37.9659C180.789 38.3826 180.224 38.7197 179.543 38.9773C178.868 39.2273 178.077 39.3523 177.168 39.3523ZM178.236 36.3295C179.062 36.3295 179.777 36.1667 180.384 35.8409C180.99 35.5076 181.455 35.0682 181.781 34.5227C182.115 33.9773 182.281 33.3826 182.281 32.7386V30.6818C182.152 30.7879 181.933 30.8864 181.622 30.9773C181.319 31.0682 180.978 31.1477 180.599 31.2159C180.221 31.2841 179.846 31.3447 179.474 31.3977C179.103 31.4508 178.781 31.4962 178.509 31.5341C177.895 31.6174 177.346 31.7538 176.861 31.9432C176.376 32.1326 175.993 32.3977 175.713 32.7386C175.433 33.072 175.293 33.5038 175.293 34.0341C175.293 34.7917 175.569 35.3636 176.122 35.75C176.675 36.1364 177.38 36.3295 178.236 36.3295ZM194.634 15.7273V39H190.52V15.7273H194.634Z" fill="#4282CD"/>
<defs>
<filter id="filter0_d_14_12" x="33.2367" y="0" width="40.3478" height="38.8019" filterUnits="userSpaceOnUse" color-interpolation-filters="sRGB">
<feFlood flood-opacity="0" result="BackgroundImageFix"/>
<feColorMatrix in="SourceAlpha" type="matrix" values="0 0 0 0 0 0 0 0 0 0 0 0 0 0 0 0 0 0 127 0" result="hardAlpha"/>
<feOffset/>
<feGaussianBlur stdDeviation="4"/>
<feComposite in2="hardAlpha" operator="out"/>
<feColorMatrix type="matrix" values="0 0 0 0 0 0 0 0 0 0 0 0 0 0 0 0 0 0 0.25 0"/>
<feBlend mode="normal" in2="BackgroundImageFix" result="effect1_dropShadow_14_12"/>
<feBlend mode="normal" in="SourceGraphic" in2="effect1_dropShadow_14_12" result="shape"/>
</filter>
<filter id="filter1_d_14_12" x="0" y="1.15942" width="40.3478" height="38.8019" filterUnits="userSpaceOnUse" color-interpolation-filters="sRGB">
<feFlood flood-opacity="0" result="BackgroundImageFix"/>
<feColorMatrix in="SourceAlpha" type="matrix" values="0 0 0 0 0 0 0 0 0 0 0 0 0 0 0 0 0 0 127 0" result="hardAlpha"/>
<feOffset/>
<feGaussianBlur stdDeviation="4"/>
<feComposite in2="hardAlpha" operator="out"/>
<feColorMatrix type="matrix" values="0 0 0 0 0 0 0 0 0 0 0 0 0 0 0 0 0 0 0.25 0"/>
<feBlend mode="normal" in2="BackgroundImageFix" result="effect1_dropShadow_14_12"/>
<feBlend mode="normal" in="SourceGraphic" in2="effect1_dropShadow_14_12" result="shape"/>
</filter>
<filter id="filter2_d_14_12" x="16.0387" y="17.1981" width="40.3478" height="38.8019" filterUnits="userSpaceOnUse" color-interpolation-filters="sRGB">
<feFlood flood-opacity="0" result="BackgroundImageFix"/>
<feColorMatrix in="SourceAlpha" type="matrix" values="0 0 0 0 0 0 0 0 0 0 0 0 0 0 0 0 0 0 127 0" result="hardAlpha"/>
<feOffset/>
<feGaussianBlur stdDeviation="4"/>
<feComposite in2="hardAlpha" operator="out"/>
<feColorMatrix type="matrix" values="0 0 0 0 0 0 0 0 0 0 0 0 0 0 0 0 0 0 0.25 0"/>
<feBlend mode="normal" in2="BackgroundImageFix" result="effect1_dropShadow_14_12"/>
<feBlend mode="normal" in="SourceGraphic" in2="effect1_dropShadow_14_12" result="shape"/>
</filter>
</defs>
</svg>
